<?xml version="1.0" encoding="UTF-8" standalone="no"?>
<!DOCTYPE svg PUBLIC "-//W3C//DTD SVG 1.1//EN"
 "http://www.w3.org/Graphics/SVG/1.1/DTD/svg11.dtd">
<!-- Generated by graphviz version 2.40.1 (20161225.0304)
 -->
<!-- Title: %3 Pages: 1 -->
<svg width="1254pt" height="392pt"
 viewBox="0.00 0.00 1254.09 392.00" xmlns="http://www.w3.org/2000/svg" xmlns:xlink="http://www.w3.org/1999/xlink">
<g id="graph0" class="graph" transform="scale(1 1) rotate(0) translate(4 388)">
<title>%3</title>
<polygon fill="#ffffff" stroke="transparent" points="-4,4 -4,-388 1250.0946,-388 1250.0946,4 -4,4"/>
<!-- 140339392894680 -->
<g id="node1" class="node">
<title>140339392894680</title>
<ellipse fill="none" stroke="#000000" cx="30.5473" cy="-18" rx="30.5947" ry="18"/>
<text text-anchor="middle" x="30.5473" y="-14.3" font-family="Times,serif" font-size="14.00" fill="#000000">[1, 2]</text>
</g>
<!-- 140339392896192 -->
<g id="node2" class="node">
<title>140339392896192</title>
<ellipse fill="none" stroke="#000000" cx="109.5473" cy="-18" rx="30.5947" ry="18"/>
<text text-anchor="middle" x="109.5473" y="-14.3" font-family="Times,serif" font-size="14.00" fill="#000000">[0, 1]</text>
</g>
<!-- 140339392894568 -->
<g id="node3" class="node">
<title>140339392894568</title>
<ellipse fill="none" stroke="#000000" cx="109.5473" cy="-105" rx="30.5947" ry="18"/>
<text text-anchor="middle" x="109.5473" y="-101.3" font-family="Times,serif" font-size="14.00" fill="#000000">[0, 2]</text>
</g>
<!-- 140339392894568&#45;&gt;140339392894680 -->
<g id="edge1" class="edge">
<title>140339392894568&#45;&gt;140339392894680</title>
<path fill="none" stroke="#000000" d="M95.0575,-89.0429C82.995,-75.7589 65.6465,-56.6535 51.9777,-41.6006"/>
<polygon fill="#000000" stroke="#000000" points="54.5265,-39.201 45.2128,-34.1506 49.3442,-43.9068 54.5265,-39.201"/>
<text text-anchor="middle" x="79.0473" y="-57.8" font-family="Times,serif" font-size="14.00" fill="#000000">0</text>
</g>
<!-- 140339392894568&#45;&gt;140339392896192 -->
<g id="edge2" class="edge">
<title>140339392894568&#45;&gt;140339392896192</title>
<path fill="none" stroke="#000000" d="M109.5473,-86.9735C109.5473,-75.1918 109.5473,-59.5607 109.5473,-46.1581"/>
<polygon fill="#000000" stroke="#000000" points="113.0474,-46.0033 109.5473,-36.0034 106.0474,-46.0034 113.0474,-46.0033"/>
<text text-anchor="middle" x="113.0473" y="-57.8" font-family="Times,serif" font-size="14.00" fill="#000000">0</text>
</g>
<!-- 140339392896360 -->
<g id="node4" class="node">
<title>140339392896360</title>
<ellipse fill="none" stroke="#000000" cx="188.5473" cy="-18" rx="30.5947" ry="18"/>
<text text-anchor="middle" x="188.5473" y="-14.3" font-family="Times,serif" font-size="14.00" fill="#000000">[1, 2]</text>
</g>
<!-- 140339392896528 -->
<g id="node5" class="node">
<title>140339392896528</title>
<ellipse fill="none" stroke="#000000" cx="267.5473" cy="-18" rx="30.5947" ry="18"/>
<text text-anchor="middle" x="267.5473" y="-14.3" font-family="Times,serif" font-size="14.00" fill="#000000">[2, 1]</text>
</g>
<!-- 140339392896248 -->
<g id="node6" class="node">
<title>140339392896248</title>
<ellipse fill="none" stroke="#000000" cx="235.5473" cy="-105" rx="30.5947" ry="18"/>
<text text-anchor="middle" x="235.5473" y="-101.3" font-family="Times,serif" font-size="14.00" fill="#000000">[2, 2]</text>
</g>
<!-- 140339392896248&#45;&gt;140339392896360 -->
<g id="edge4" class="edge">
<title>140339392896248&#45;&gt;140339392896360</title>
<path fill="none" stroke="#000000" d="M226.2616,-87.8116C219.5024,-75.3 210.2303,-58.1366 202.5712,-43.9592"/>
<polygon fill="#000000" stroke="#000000" points="205.6462,-42.2873 197.8137,-35.1527 199.4874,-45.6145 205.6462,-42.2873"/>
<text text-anchor="middle" x="219.0473" y="-57.8" font-family="Times,serif" font-size="14.00" fill="#000000">0</text>
</g>
<!-- 140339392896248&#45;&gt;140339392896528 -->
<g id="edge5" class="edge">
<title>140339392896248&#45;&gt;140339392896528</title>
<path fill="none" stroke="#000000" d="M242.023,-87.3943C246.4611,-75.3281 252.4364,-59.0828 257.4898,-45.3438"/>
<polygon fill="#000000" stroke="#000000" points="260.8041,-46.4717 260.9714,-35.8782 254.2344,-44.0552 260.8041,-46.4717"/>
<text text-anchor="middle" x="257.0473" y="-57.8" font-family="Times,serif" font-size="14.00" fill="#000000">0</text>
</g>
<!-- 140339392894344 -->
<g id="node7" class="node">
<title>140339392894344</title>
<ellipse fill="none" stroke="#000000" cx="235.5473" cy="-192" rx="30.5947" ry="18"/>
<text text-anchor="middle" x="235.5473" y="-188.3" font-family="Times,serif" font-size="14.00" fill="#000000">[1, 2]</text>
</g>
<!-- 140339392894344&#45;&gt;140339392894568 -->
<g id="edge3" class="edge">
<title>140339392894344&#45;&gt;140339392894568</title>
<path fill="none" stroke="#000000" d="M215.5822,-178.2146C194.5695,-163.7058 161.3219,-140.7492 137.6617,-124.4123"/>
<polygon fill="#000000" stroke="#000000" points="139.6366,-121.5227 129.419,-118.7209 135.6593,-127.283 139.6366,-121.5227"/>
<text text-anchor="middle" x="184.0473" y="-144.8" font-family="Times,serif" font-size="14.00" fill="#000000">0</text>
</g>
<!-- 140339392894344&#45;&gt;140339392896248 -->
<g id="edge6" class="edge">
<title>140339392894344&#45;&gt;140339392896248</title>
<path fill="none" stroke="#000000" d="M235.5473,-173.9735C235.5473,-162.1918 235.5473,-146.5607 235.5473,-133.1581"/>
<polygon fill="#000000" stroke="#000000" points="239.0474,-133.0033 235.5473,-123.0034 232.0474,-133.0034 239.0474,-133.0033"/>
<text text-anchor="middle" x="239.0473" y="-144.8" font-family="Times,serif" font-size="14.00" fill="#000000">0</text>
</g>
<!-- 140339392896808 -->
<g id="node8" class="node">
<title>140339392896808</title>
<ellipse fill="none" stroke="#000000" cx="346.5473" cy="-18" rx="30.5947" ry="18"/>
<text text-anchor="middle" x="346.5473" y="-14.3" font-family="Times,serif" font-size="14.00" fill="#000000">[1, 2]</text>
</g>
<!-- 140339392896920 -->
<g id="node9" class="node">
<title>140339392896920</title>
<ellipse fill="none" stroke="#000000" cx="425.5473" cy="-18" rx="30.5947" ry="18"/>
<text text-anchor="middle" x="425.5473" y="-14.3" font-family="Times,serif" font-size="14.00" fill="#000000">[0, 1]</text>
</g>
<!-- 140339392896640 -->
<g id="node10" class="node">
<title>140339392896640</title>
<ellipse fill="none" stroke="#000000" cx="425.5473" cy="-105" rx="30.5947" ry="18"/>
<text text-anchor="middle" x="425.5473" y="-101.3" font-family="Times,serif" font-size="14.00" fill="#000000">[0, 2]</text>
</g>
<!-- 140339392896640&#45;&gt;140339392896808 -->
<g id="edge8" class="edge">
<title>140339392896640&#45;&gt;140339392896808</title>
<path fill="none" stroke="#000000" d="M411.0575,-89.0429C398.995,-75.7589 381.6465,-56.6535 367.9777,-41.6006"/>
<polygon fill="#000000" stroke="#000000" points="370.5265,-39.201 361.2128,-34.1506 365.3442,-43.9068 370.5265,-39.201"/>
<text text-anchor="middle" x="395.0473" y="-57.8" font-family="Times,serif" font-size="14.00" fill="#000000">0</text>
</g>
<!-- 140339392896640&#45;&gt;140339392896920 -->
<g id="edge9" class="edge">
<title>140339392896640&#45;&gt;140339392896920</title>
<path fill="none" stroke="#000000" d="M425.5473,-86.9735C425.5473,-75.1918 425.5473,-59.5607 425.5473,-46.1581"/>
<polygon fill="#000000" stroke="#000000" points="429.0474,-46.0033 425.5473,-36.0034 422.0474,-46.0034 429.0474,-46.0033"/>
<text text-anchor="middle" x="429.0473" y="-57.8" font-family="Times,serif" font-size="14.00" fill="#000000">0</text>
</g>
<!-- 140339392942264 -->
<g id="node11" class="node">
<title>140339392942264</title>
<ellipse fill="none" stroke="#000000" cx="504.5473" cy="-18" rx="30.5947" ry="18"/>
<text text-anchor="middle" x="504.5473" y="-14.3" font-family="Times,serif" font-size="14.00" fill="#000000">[0, 1]</text>
</g>
<!-- 140339392942376 -->
<g id="node12" class="node">
<title>140339392942376</title>
<ellipse fill="none" stroke="#000000" cx="583.5473" cy="-18" rx="30.5947" ry="18"/>
<text text-anchor="middle" x="583.5473" y="-14.3" font-family="Times,serif" font-size="14.00" fill="#000000">[1, 0]</text>
</g>
<!-- 140339392896976 -->
<g id="node13" class="node">
<title>140339392896976</title>
<ellipse fill="none" stroke="#000000" cx="504.5473" cy="-105" rx="30.5947" ry="18"/>
<text text-anchor="middle" x="504.5473" y="-101.3" font-family="Times,serif" font-size="14.00" fill="#000000">[0, 0]</text>
</g>
<!-- 140339392896976&#45;&gt;140339392942264 -->
<g id="edge11" class="edge">
<title>140339392896976&#45;&gt;140339392942264</title>
<path fill="none" stroke="#000000" d="M504.5473,-86.9735C504.5473,-75.1918 504.5473,-59.5607 504.5473,-46.1581"/>
<polygon fill="#000000" stroke="#000000" points="508.0474,-46.0033 504.5473,-36.0034 501.0474,-46.0034 508.0474,-46.0033"/>
<text text-anchor="middle" x="508.0473" y="-57.8" font-family="Times,serif" font-size="14.00" fill="#000000">0</text>
</g>
<!-- 140339392896976&#45;&gt;140339392942376 -->
<g id="edge12" class="edge">
<title>140339392896976&#45;&gt;140339392942376</title>
<path fill="none" stroke="#000000" d="M519.0371,-89.0429C531.0995,-75.7589 548.4481,-56.6535 562.1168,-41.6006"/>
<polygon fill="#000000" stroke="#000000" points="564.7504,-43.9068 568.8818,-34.1506 559.5681,-39.201 564.7504,-43.9068"/>
<text text-anchor="middle" x="553.0473" y="-57.8" font-family="Times,serif" font-size="14.00" fill="#000000">0</text>
</g>
<!-- 140339392893952 -->
<g id="node14" class="node">
<title>140339392893952</title>
<ellipse fill="none" stroke="#000000" cx="470.5473" cy="-192" rx="30.5947" ry="18"/>
<text text-anchor="middle" x="470.5473" y="-188.3" font-family="Times,serif" font-size="14.00" fill="#000000">[0, 1]</text>
</g>
<!-- 140339392893952&#45;&gt;140339392896640 -->
<g id="edge10" class="edge">
<title>140339392893952&#45;&gt;140339392896640</title>
<path fill="none" stroke="#000000" d="M461.4409,-174.3943C455.0557,-162.0496 446.4079,-145.3306 439.2006,-131.3965"/>
<polygon fill="#000000" stroke="#000000" points="442.1896,-129.5568 434.4866,-122.2827 435.9721,-132.7728 442.1896,-129.5568"/>
<text text-anchor="middle" x="455.0473" y="-144.8" font-family="Times,serif" font-size="14.00" fill="#000000">0</text>
</g>
<!-- 140339392893952&#45;&gt;140339392896976 -->
<g id="edge13" class="edge">
<title>140339392893952&#45;&gt;140339392896976</title>
<path fill="none" stroke="#000000" d="M477.4277,-174.3943C482.1744,-162.2482 488.5761,-145.8674 493.9678,-132.0711"/>
<polygon fill="#000000" stroke="#000000" points="497.297,-133.1676 497.6771,-122.5796 490.7772,-130.6196 497.297,-133.1676"/>
<text text-anchor="middle" x="494.0473" y="-144.8" font-family="Times,serif" font-size="14.00" fill="#000000">0</text>
</g>
<!-- 140339392893560 -->
<g id="node15" class="node">
<title>140339392893560</title>
<ellipse fill="none" stroke="#000000" cx="470.5473" cy="-279" rx="30.5947" ry="18"/>
<text text-anchor="middle" x="470.5473" y="-275.3" font-family="Times,serif" font-size="14.00" fill="#000000">[0, 2]</text>
</g>
<!-- 140339392893560&#45;&gt;140339392894344 -->
<g id="edge7" class="edge">
<title>140339392893560&#45;&gt;140339392894344</title>
<path fill="none" stroke="#000000" d="M444.5003,-269.3571C402.3281,-253.7444 319.023,-222.9038 271.3218,-205.2442"/>
<polygon fill="#000000" stroke="#000000" points="272.3041,-201.8757 261.711,-201.6861 269.8738,-208.4403 272.3041,-201.8757"/>
<text text-anchor="middle" x="371.0473" y="-231.8" font-family="Times,serif" font-size="14.00" fill="#000000">0</text>
</g>
<!-- 140339392893560&#45;&gt;140339392893952 -->
<g id="edge14" class="edge">
<title>140339392893560&#45;&gt;140339392893952</title>
<path fill="none" stroke="#000000" d="M470.5473,-260.9735C470.5473,-249.1918 470.5473,-233.5607 470.5473,-220.1581"/>
<polygon fill="#000000" stroke="#000000" points="474.0474,-220.0033 470.5473,-210.0034 467.0474,-220.0034 474.0474,-220.0033"/>
<text text-anchor="middle" x="474.0473" y="-231.8" font-family="Times,serif" font-size="14.00" fill="#000000">0</text>
</g>
<!-- 140339392942824 -->
<g id="node16" class="node">
<title>140339392942824</title>
<ellipse fill="none" stroke="#000000" cx="662.5473" cy="-18" rx="30.5947" ry="18"/>
<text text-anchor="middle" x="662.5473" y="-14.3" font-family="Times,serif" font-size="14.00" fill="#000000">[1, 2]</text>
</g>
<!-- 140339392942936 -->
<g id="node17" class="node">
<title>140339392942936</title>
<ellipse fill="none" stroke="#000000" cx="741.5473" cy="-18" rx="30.5947" ry="18"/>
<text text-anchor="middle" x="741.5473" y="-14.3" font-family="Times,serif" font-size="14.00" fill="#000000">[0, 1]</text>
</g>
<!-- 140339392942656 -->
<g id="node18" class="node">
<title>140339392942656</title>
<ellipse fill="none" stroke="#000000" cx="741.5473" cy="-105" rx="30.5947" ry="18"/>
<text text-anchor="middle" x="741.5473" y="-101.3" font-family="Times,serif" font-size="14.00" fill="#000000">[0, 2]</text>
</g>
<!-- 140339392942656&#45;&gt;140339392942824 -->
<g id="edge16" class="edge">
<title>140339392942656&#45;&gt;140339392942824</title>
<path fill="none" stroke="#000000" d="M727.0575,-89.0429C714.995,-75.7589 697.6465,-56.6535 683.9777,-41.6006"/>
<polygon fill="#000000" stroke="#000000" points="686.5265,-39.201 677.2128,-34.1506 681.3442,-43.9068 686.5265,-39.201"/>
<text text-anchor="middle" x="711.0473" y="-57.8" font-family="Times,serif" font-size="14.00" fill="#000000">0</text>
</g>
<!-- 140339392942656&#45;&gt;140339392942936 -->
<g id="edge17" class="edge">
<title>140339392942656&#45;&gt;140339392942936</title>
<path fill="none" stroke="#000000" d="M741.5473,-86.9735C741.5473,-75.1918 741.5473,-59.5607 741.5473,-46.1581"/>
<polygon fill="#000000" stroke="#000000" points="745.0474,-46.0033 741.5473,-36.0034 738.0474,-46.0034 745.0474,-46.0033"/>
<text text-anchor="middle" x="745.0473" y="-57.8" font-family="Times,serif" font-size="14.00" fill="#000000">0</text>
</g>
<!-- 140339392943160 -->
<g id="node19" class="node">
<title>140339392943160</title>
<ellipse fill="none" stroke="#000000" cx="820.5473" cy="-18" rx="30.5947" ry="18"/>
<text text-anchor="middle" x="820.5473" y="-14.3" font-family="Times,serif" font-size="14.00" fill="#000000">[0, 1]</text>
</g>
<!-- 140339392943272 -->
<g id="node20" class="node">
<title>140339392943272</title>
<ellipse fill="none" stroke="#000000" cx="899.5473" cy="-18" rx="30.5947" ry="18"/>
<text text-anchor="middle" x="899.5473" y="-14.3" font-family="Times,serif" font-size="14.00" fill="#000000">[1, 0]</text>
</g>
<!-- 140339392942992 -->
<g id="node21" class="node">
<title>140339392942992</title>
<ellipse fill="none" stroke="#000000" cx="820.5473" cy="-105" rx="30.5947" ry="18"/>
<text text-anchor="middle" x="820.5473" y="-101.3" font-family="Times,serif" font-size="14.00" fill="#000000">[0, 0]</text>
</g>
<!-- 140339392942992&#45;&gt;140339392943160 -->
<g id="edge19" class="edge">
<title>140339392942992&#45;&gt;140339392943160</title>
<path fill="none" stroke="#000000" d="M820.5473,-86.9735C820.5473,-75.1918 820.5473,-59.5607 820.5473,-46.1581"/>
<polygon fill="#000000" stroke="#000000" points="824.0474,-46.0033 820.5473,-36.0034 817.0474,-46.0034 824.0474,-46.0033"/>
<text text-anchor="middle" x="824.0473" y="-57.8" font-family="Times,serif" font-size="14.00" fill="#000000">0</text>
</g>
<!-- 140339392942992&#45;&gt;140339392943272 -->
<g id="edge20" class="edge">
<title>140339392942992&#45;&gt;140339392943272</title>
<path fill="none" stroke="#000000" d="M835.0371,-89.0429C847.0995,-75.7589 864.4481,-56.6535 878.1168,-41.6006"/>
<polygon fill="#000000" stroke="#000000" points="880.7504,-43.9068 884.8818,-34.1506 875.5681,-39.201 880.7504,-43.9068"/>
<text text-anchor="middle" x="868.0473" y="-57.8" font-family="Times,serif" font-size="14.00" fill="#000000">0</text>
</g>
<!-- 140339392942488 -->
<g id="node22" class="node">
<title>140339392942488</title>
<ellipse fill="none" stroke="#000000" cx="774.5473" cy="-192" rx="30.5947" ry="18"/>
<text text-anchor="middle" x="774.5473" y="-188.3" font-family="Times,serif" font-size="14.00" fill="#000000">[0, 1]</text>
</g>
<!-- 140339392942488&#45;&gt;140339392942656 -->
<g id="edge18" class="edge">
<title>140339392942488&#45;&gt;140339392942656</title>
<path fill="none" stroke="#000000" d="M767.8692,-174.3943C763.2621,-162.2482 757.0487,-145.8674 751.8156,-132.0711"/>
<polygon fill="#000000" stroke="#000000" points="755.0345,-130.6882 748.2154,-122.5796 748.4895,-133.1709 755.0345,-130.6882"/>
<text text-anchor="middle" x="764.0473" y="-144.8" font-family="Times,serif" font-size="14.00" fill="#000000">0</text>
</g>
<!-- 140339392942488&#45;&gt;140339392942992 -->
<g id="edge21" class="edge">
<title>140339392942488&#45;&gt;140339392942992</title>
<path fill="none" stroke="#000000" d="M783.6354,-174.8116C790.1452,-162.4996 799.0367,-145.6831 806.4617,-131.64"/>
<polygon fill="#000000" stroke="#000000" points="809.7405,-132.9268 811.3206,-122.4505 803.5522,-129.6548 809.7405,-132.9268"/>
<text text-anchor="middle" x="803.0473" y="-144.8" font-family="Times,serif" font-size="14.00" fill="#000000">0</text>
</g>
<!-- 140339392943608 -->
<g id="node23" class="node">
<title>140339392943608</title>
<ellipse fill="none" stroke="#000000" cx="978.5473" cy="-18" rx="30.5947" ry="18"/>
<text text-anchor="middle" x="978.5473" y="-14.3" font-family="Times,serif" font-size="14.00" fill="#000000">[0, 1]</text>
</g>
<!-- 140339392943720 -->
<g id="node24" class="node">
<title>140339392943720</title>
<ellipse fill="none" stroke="#000000" cx="1057.5473" cy="-18" rx="30.5947" ry="18"/>
<text text-anchor="middle" x="1057.5473" y="-14.3" font-family="Times,serif" font-size="14.00" fill="#000000">[1, 0]</text>
</g>
<!-- 140339392943440 -->
<g id="node25" class="node">
<title>140339392943440</title>
<ellipse fill="none" stroke="#000000" cx="1010.5473" cy="-105" rx="30.5947" ry="18"/>
<text text-anchor="middle" x="1010.5473" y="-101.3" font-family="Times,serif" font-size="14.00" fill="#000000">[0, 0]</text>
</g>
<!-- 140339392943440&#45;&gt;140339392943608 -->
<g id="edge23" class="edge">
<title>140339392943440&#45;&gt;140339392943608</title>
<path fill="none" stroke="#000000" d="M1004.0716,-87.3943C999.6335,-75.3281 993.6582,-59.0828 988.6048,-45.3438"/>
<polygon fill="#000000" stroke="#000000" points="991.8601,-44.0552 985.1232,-35.8782 985.2904,-46.4717 991.8601,-44.0552"/>
<text text-anchor="middle" x="999.0473" y="-57.8" font-family="Times,serif" font-size="14.00" fill="#000000">0</text>
</g>
<!-- 140339392943440&#45;&gt;140339392943720 -->
<g id="edge24" class="edge">
<title>140339392943440&#45;&gt;140339392943720</title>
<path fill="none" stroke="#000000" d="M1019.833,-87.8116C1026.5921,-75.3 1035.8643,-58.1366 1043.5234,-43.9592"/>
<polygon fill="#000000" stroke="#000000" points="1046.6072,-45.6145 1048.2809,-35.1527 1040.4484,-42.2873 1046.6072,-45.6145"/>
<text text-anchor="middle" x="1040.0473" y="-57.8" font-family="Times,serif" font-size="14.00" fill="#000000">0</text>
</g>
<!-- 140339392943944 -->
<g id="node26" class="node">
<title>140339392943944</title>
<ellipse fill="none" stroke="#000000" cx="1136.5473" cy="-18" rx="30.5947" ry="18"/>
<text text-anchor="middle" x="1136.5473" y="-14.3" font-family="Times,serif" font-size="14.00" fill="#000000">[1, 0]</text>
</g>
<!-- 140339392944056 -->
<g id="node27" class="node">
<title>140339392944056</title>
<ellipse fill="none" stroke="#000000" cx="1215.5473" cy="-18" rx="30.5947" ry="18"/>
<text text-anchor="middle" x="1215.5473" y="-14.3" font-family="Times,serif" font-size="14.00" fill="#000000">[2, 1]</text>
</g>
<!-- 140339392943776 -->
<g id="node28" class="node">
<title>140339392943776</title>
<ellipse fill="none" stroke="#000000" cx="1136.5473" cy="-105" rx="30.5947" ry="18"/>
<text text-anchor="middle" x="1136.5473" y="-101.3" font-family="Times,serif" font-size="14.00" fill="#000000">[2, 0]</text>
</g>
<!-- 140339392943776&#45;&gt;140339392943944 -->
<g id="edge26" class="edge">
<title>140339392943776&#45;&gt;140339392943944</title>
<path fill="none" stroke="#000000" d="M1136.5473,-86.9735C1136.5473,-75.1918 1136.5473,-59.5607 1136.5473,-46.1581"/>
<polygon fill="#000000" stroke="#000000" points="1140.0474,-46.0033 1136.5473,-36.0034 1133.0474,-46.0034 1140.0474,-46.0033"/>
<text text-anchor="middle" x="1140.0473" y="-57.8" font-family="Times,serif" font-size="14.00" fill="#000000">0</text>
</g>
<!-- 140339392943776&#45;&gt;140339392944056 -->
<g id="edge27" class="edge">
<title>140339392943776&#45;&gt;140339392944056</title>
<path fill="none" stroke="#000000" d="M1151.0371,-89.0429C1163.0995,-75.7589 1180.4481,-56.6535 1194.1168,-41.6006"/>
<polygon fill="#000000" stroke="#000000" points="1196.7504,-43.9068 1200.8818,-34.1506 1191.5681,-39.201 1196.7504,-43.9068"/>
<text text-anchor="middle" x="1184.0473" y="-57.8" font-family="Times,serif" font-size="14.00" fill="#000000">0</text>
</g>
<!-- 140339392943048 -->
<g id="node29" class="node">
<title>140339392943048</title>
<ellipse fill="none" stroke="#000000" cx="1010.5473" cy="-192" rx="30.5947" ry="18"/>
<text text-anchor="middle" x="1010.5473" y="-188.3" font-family="Times,serif" font-size="14.00" fill="#000000">[1, 0]</text>
</g>
<!-- 140339392943048&#45;&gt;140339392943440 -->
<g id="edge25" class="edge">
<title>140339392943048&#45;&gt;140339392943440</title>
<path fill="none" stroke="#000000" d="M1010.5473,-173.9735C1010.5473,-162.1918 1010.5473,-146.5607 1010.5473,-133.1581"/>
<polygon fill="#000000" stroke="#000000" points="1014.0474,-133.0033 1010.5473,-123.0034 1007.0474,-133.0034 1014.0474,-133.0033"/>
<text text-anchor="middle" x="1014.0473" y="-144.8" font-family="Times,serif" font-size="14.00" fill="#000000">0</text>
</g>
<!-- 140339392943048&#45;&gt;140339392943776 -->
<g id="edge28" class="edge">
<title>140339392943048&#45;&gt;140339392943776</title>
<path fill="none" stroke="#000000" d="M1030.5124,-178.2146C1051.5251,-163.7058 1084.7726,-140.7492 1108.4329,-124.4123"/>
<polygon fill="#000000" stroke="#000000" points="1110.4353,-127.283 1116.6756,-118.7209 1106.458,-121.5227 1110.4353,-127.283"/>
<text text-anchor="middle" x="1084.0473" y="-144.8" font-family="Times,serif" font-size="14.00" fill="#000000">0</text>
</g>
<!-- 140339392896584 -->
<g id="node30" class="node">
<title>140339392896584</title>
<ellipse fill="none" stroke="#000000" cx="774.5473" cy="-279" rx="30.5947" ry="18"/>
<text text-anchor="middle" x="774.5473" y="-275.3" font-family="Times,serif" font-size="14.00" fill="#000000">[0, 0]</text>
</g>
<!-- 140339392896584&#45;&gt;140339392942488 -->
<g id="edge22" class="edge">
<title>140339392896584&#45;&gt;140339392942488</title>
<path fill="none" stroke="#000000" d="M774.5473,-260.9735C774.5473,-249.1918 774.5473,-233.5607 774.5473,-220.1581"/>
<polygon fill="#000000" stroke="#000000" points="778.0474,-220.0033 774.5473,-210.0034 771.0474,-220.0034 778.0474,-220.0033"/>
<text text-anchor="middle" x="778.0473" y="-231.8" font-family="Times,serif" font-size="14.00" fill="#000000">0</text>
</g>
<!-- 140339392896584&#45;&gt;140339392943048 -->
<g id="edge29" class="edge">
<title>140339392896584&#45;&gt;140339392943048</title>
<path fill="none" stroke="#000000" d="M800.7051,-269.3571C843.1688,-253.7031 927.1593,-222.7405 975,-205.1043"/>
<polygon fill="#000000" stroke="#000000" points="976.4599,-208.2965 984.632,-201.5535 974.0386,-201.7285 976.4599,-208.2965"/>
<text text-anchor="middle" x="910.0473" y="-231.8" font-family="Times,serif" font-size="14.00" fill="#000000">0</text>
</g>
<!-- 140339393894328 -->
<g id="node31" class="node">
<title>140339393894328</title>
<ellipse fill="none" stroke="#000000" cx="616.5473" cy="-366" rx="30.5947" ry="18"/>
<text text-anchor="middle" x="616.5473" y="-362.3" font-family="Times,serif" font-size="14.00" fill="#000000">[0, 1]</text>
</g>
<!-- 140339393894328&#45;&gt;140339392893560 -->
<g id="edge15" class="edge">
<title>140339393894328&#45;&gt;140339392893560</title>
<path fill="none" stroke="#000000" d="M595.0045,-353.1629C570.0965,-338.3204 528.9265,-313.7876 500.811,-297.0339"/>
<polygon fill="#000000" stroke="#000000" points="502.5606,-294.0022 492.1785,-291.8898 498.9773,-300.0155 502.5606,-294.0022"/>
<text text-anchor="middle" x="556.0473" y="-318.8" font-family="Times,serif" font-size="14.00" fill="#000000">0</text>
</g>
<!-- 140339393894328&#45;&gt;140339392896584 -->
<g id="edge30" class="edge">
<title>140339393894328&#45;&gt;140339392896584</title>
<path fill="none" stroke="#000000" d="M639.1848,-353.535C666.4821,-338.5043 712.5128,-313.1583 743.2102,-296.2552"/>
<polygon fill="#000000" stroke="#000000" points="745.1354,-299.1907 752.207,-291.3013 741.7589,-293.0589 745.1354,-299.1907"/>
<text text-anchor="middle" x="709.0473" y="-318.8" font-family="Times,serif" font-size="14.00" fill="#000000">0</text>
</g>
</g>
</svg>
